<?xml version="1.0" encoding="UTF-8"?>
<!DOCTYPE svg PUBLIC "-//W3C//DTD SVG 1.1//EN" "http://www.w3.org/Graphics/SVG/1.1/DTD/svg11.dtd">
<!-- Creator: CorelDRAW -->
<svg xmlns="http://www.w3.org/2000/svg" xml:space="preserve" width="6.66666in" height="6.66666in" version="1.1" style="shape-rendering:geometricPrecision; text-rendering:geometricPrecision; image-rendering:optimizeQuality; fill-rule:evenodd; clip-rule:evenodd"
viewBox="0 0 6666.66 6666.66"
 xmlns:xlink="http://www.w3.org/1999/xlink"
 xmlns:xodm="http://www.corel.com/coreldraw/odm/2003">
 <defs>
  <style type="text/css">
   <![CDATA[
    .fil0 {fill:#00004D}
    .fil1 {fill:white;fill-rule:nonzero}
   ]]>
  </style>
 </defs>
 <g id="Layer_x0020_1">
  <metadata id="CorelCorpID_0Corel-Layer"/>
  <rect class="fil0" x="-0" y="-0.01" width="6666.67" height="6666.67"/>
  <path class="fil1" d="M1616.77 4005.55l-1287.98 0 252.55 -818.54 347.62 0 -147.07 493.2 353.56 0 -377.33 -1019.09 383.28 0 475.38 1344.43zm958.19 -2.97l-894.31 0 0 -1341.46 371.39 0 0 1042.86 522.92 0 0 298.6zm1026.52 -922.53c0,121.81 -36.64,214.91 -109.93,279.28 -45.56,38.63 -110.43,68.83 -194.61,90.62 -84.18,21.79 -186.69,32.68 -307.51,32.68l0 519.94 -371.39 0 0 -818.54 365.44 0 34.17 0c54.47,0 95.07,-4.46 121.81,-13.37 41.59,-14.85 62.39,-44.07 62.39,-87.65 0,-46.55 -22.28,-80.22 -66.85,-101.02 -29.71,-11.89 -77.25,-17.83 -142.61,-17.83l-374.36 0 0 -303.06 374.36 4.46c118.85,0 220.11,10.4 303.8,31.2 83.69,20.8 149.3,52.98 196.83,96.56 72.3,64.37 108.44,159.94 108.44,286.71zm1383.06 -57.94l-369.9 0 0 -360.99 369.9 0 0 360.99zm0 980.47l-369.9 0 0 -863.11 369.9 0 0 863.11zm-448.64 -525.89l-519.94 0 0 525.89 -368.42 0 0 -1341.46 368.42 0 0 522.92 519.94 0 0 292.66zm1801.98 528.86l-1287.98 0 252.54 -818.54 347.62 0 -147.07 493.2 353.56 0 -377.33 -1019.09 383.27 0 475.38 1344.43z"/>
 </g>
</svg>
